HIERARCHY
ROOT Hips
{
     OFFSET 18.43440 94.57110 -29.15870
     CHANNELS 6 Xposition Yposition Zposition Zrotation Xrotation Yrotation
     JOINT Spine
     {
          OFFSET 0.00000 11.89050 -0.00000
          CHANNELS 3 Zrotation Xrotation Yrotation
          JOINT Spine1
          {
               OFFSET 0.00000 25.65740 0.12766
               CHANNELS 3 Zrotation Xrotation Yrotation
               JOINT HEad
               {
                    OFFSET -0.00000 8.73416 0.01134
                    CHANNELS 3 Zrotation Xrotation Yrotation
                    End Site
                    {
                         OFFSET -0.29000 12.77420 2.51395
                    }
               }
               JOINT LeftShoulder1
               {
                    OFFSET 8.99000 -0.36225 -0.22000
                    CHANNELS 3 Zrotation Xrotation Yrotation
                    JOINT LeftArm
                    {
                         OFFSET 10.28270 -0.00338 0.32212
                         CHANNELS 3 Zrotation Xrotation Yrotation
                         JOINT LeftForeArm
                         {
                              OFFSET 32.76690 0.09914 -1.42434
                              CHANNELS 3 Zrotation Xrotation Yrotation
                              JOINT LeftHand
                              {
                                   OFFSET 27.56430 0.08536 1.02216
                                   CHANNELS 3 Zrotation Xrotation Yrotation
                                   End Site
                                   {
                                        OFFSET 16.74430 -0.60000 1.50291
                                   }
                              }
                         }
                    }
               }
               JOINT RightShoulder
               {
                    OFFSET -8.99000 -0.36225 -0.22000
                    CHANNELS 3 Zrotation Xrotation Yrotation
                    JOINT RightArm
                    {
                         OFFSET -10.28270 -0.00338 0.32212
                         CHANNELS 3 Zrotation Xrotation Yrotation
                         JOINT RightForeArm
                         {
                              OFFSET -32.89710 0.09914 -1.42434
                              CHANNELS 3 Zrotation Xrotation Yrotation
                              JOINT RightHand
                              {
                                   OFFSET -27.49210 0.08536 1.02216
                                   CHANNELS 3 Zrotation Xrotation Yrotation
                                   End Site
                                   {
                                        OFFSET -16.63120 -0.60000 1.50291
                                   }
                              }
                         }
                    }
               }
          }
     }
     JOINT LeftUpLeg
     {
          OFFSET 8.94580 -8.66707 0.10165
          CHANNELS 3 Zrotation Xrotation Yrotation
          JOINT LeftLeg
          {
               OFFSET -0.00000 -44.42270 1.37270
               CHANNELS 3 Zrotation Xrotation Yrotation
               JOINT LeftFoot
               {
                    OFFSET -0.25355 -42.09240 -1.46059
                    CHANNELS 3 Zrotation Xrotation Yrotation
                    JOINT LeftToes
                    {
                         OFFSET -0.04000 -4.41509 8.49910
                         CHANNELS 3 Zrotation Xrotation Yrotation
                         End Site
                         {
                              OFFSET 0.08000 -0.04745 9.77979
                         }
                    }
               }
          }
     }
     JOINT RightUpLeg
     {
          OFFSET -8.94580 -8.66707 0.10165
          CHANNELS 3 Zrotation Xrotation Yrotation
          JOINT RightLeg
          {
               OFFSET -0.00000 -44.42270 1.37270
               CHANNELS 3 Zrotation Xrotation Yrotation
               JOINT RightFoot
               {
                    OFFSET 0.25355 -42.09240 -1.46059
                    CHANNELS 3 Zrotation Xrotation Yrotation
                    JOINT RightToes
                    {
                         OFFSET 0.04000 -4.41509 8.49910
                         CHANNELS 3 Zrotation Xrotation Yrotation
                         End Site
                         {
                              OFFSET -0.08000 -0.13745 9.77979
                         }
                    }
               }
          }
     }
}
MOTION
Frames: 17
Frame Time: 0.01667
18.43440 94.57110 -29.15870 -6.00821 -12.13860 -26.99570 -2.03333 11.39240 0.48363 -1.28949 22.48980 1.00753 -7.95036 -1.03710 5.17227 -0.00000 0.00000 -0.00000 -140.18600 -55.52680 -115.69600 -55.73160 62.48380 -61.69030 15.28320 7.67768 -13.12680 8.91148 0.59802 1.96999 98.31460 4.28845 83.38600 26.30030 33.92970 88.99530 15.93720 12.07330 10.70070 18.35320 -5.24756 -9.49400 -19.79120 7.77998 55.89430 -1.43564 15.30080 0.17890 5.46883 -20.50450 -58.37480 -24.40900 10.53190 9.07070 41.90500 5.68126 -41.03140 -33.81500 -2.58800 1.41192 6.17831 -38.08280 13.53270 
18.13790 94.49450 -29.31610 -5.70183 -12.04660 -26.06590 -2.26219 11.41080 0.62363 -1.60135 22.49570 1.32318 -8.22293 -0.65171 4.41365 -0.00000 0.00000 -0.00000 -140.99300 -54.92700 -116.23200 -57.09560 62.97300 -60.39330 15.51700 7.62461 -13.25520 8.89145 0.57969 1.82496 98.83180 4.74007 82.99810 26.42920 34.17220 89.26990 15.83640 12.05780 10.68560 18.19580 -5.83629 -9.46062 -19.62980 7.98621 55.53010 -1.07558 15.57630 0.10800 5.28095 -21.09970 -58.66090 -24.40790 10.51350 8.87337 42.26260 5.70951 -41.60810 -33.72540 -2.90734 1.30856 6.23716 -38.38430 13.47460 
17.83300 94.39530 -29.46140 -5.38483 -11.97220 -25.21180 -2.51739 11.44410 0.76954 -1.95007 22.52700 1.65259 -8.37340 -0.37858 3.69113 -0.00000 0.00000 -0.00000 -141.96899 -54.46990 -116.85500 -58.59710 63.48550 -58.98810 15.82030 7.56102 -13.37660 8.87738 0.58453 1.86847 99.37000 5.06180 82.60660 26.64910 34.46510 89.44950 15.72090 12.04650 10.71290 18.01970 -6.40230 -9.36071 -19.44730 8.23573 55.29790 -0.70965 16.01260 0.03420 4.93812 -22.15240 -59.27070 -24.46480 10.45660 8.76119 42.68170 5.76146 -42.19120 -33.70300 -3.28891 1.18926 6.27809 -38.70740 13.31590 
17.52700 94.27510 -29.58220 -5.06777 -11.93730 -24.48590 -2.79306 11.49500 0.93121 -2.35843 22.59160 2.02303 -8.42722 -0.14135 2.94598 -0.00000 0.00000 -0.00000 -143.05299 -54.18140 -117.49800 -60.33470 63.94000 -57.37310 16.15290 7.48731 -13.53260 8.89834 0.61135 2.08300 99.87380 5.24627 82.25230 26.97040 34.79030 89.50730 15.59730 12.04010 10.78190 17.84430 -6.90850 -9.31883 -19.30720 8.51002 55.28540 -0.43812 16.53750 -0.02279 4.48925 -23.45790 -60.14050 -24.56350 10.33670 8.68668 43.11130 5.95726 -42.77720 -33.77850 -3.74361 1.05105 6.31736 -39.08700 13.09640 
17.23180 94.13920 -29.66590 -4.76539 -11.94570 -23.91440 -3.07932 11.56160 1.11000 -2.84159 22.68750 2.44594 -8.33794 0.05741 2.22089 -0.00000 0.00000 -0.00000 -144.29900 -54.07690 -118.20200 -62.43470 64.30970 -55.40240 16.47350 7.40487 -13.75720 8.96154 0.65794 2.44575 100.28800 5.29020 81.96720 27.31280 35.10560 89.50200 15.46010 12.03550 10.87780 17.69250 -7.33769 -9.46278 -19.27580 8.78707 55.54030 -0.27319 17.00570 -0.05917 4.01277 -24.75610 -61.08680 -24.67090 10.12130 8.57513 43.49010 6.42381 -43.38540 -33.91990 -4.23315 0.90337 6.40261 -39.60870 12.93690 
16.95840 93.99110 -29.69940 -4.49710 -11.97980 -23.49060 -3.36403 11.63600 1.29480 -3.39538 22.79910 2.90428 -8.04016 0.16761 1.59326 -0.00000 0.00000 -0.00000 -145.29201 -54.20910 -118.66000 -64.31360 64.46280 -53.60440 16.74820 7.31885 -14.04930 9.06891 0.72286 2.93918 100.56400 5.18581 81.76660 27.60970 35.37410 89.49150 15.29730 12.02770 10.97690 17.59570 -7.70474 -9.88040 -19.41180 9.05622 56.10420 -0.13771 17.25570 -0.08941 3.57846 -25.86840 -61.93730 -24.74740 9.79223 8.36111 43.77180 7.23103 -44.04240 -34.06370 -4.69203 0.76394 6.59020 -40.37660 12.96450 
16.71110 93.83190 -29.67160 -4.28943 -12.01670 -23.19900 -3.64522 11.70980 1.46917 -3.99703 22.90870 3.36062 -7.54246 0.20233 1.05970 -0.00000 0.00000 -0.00000 -144.84100 -54.69000 -117.98100 -64.42620 64.07280 -53.45100 16.93310 7.24254 -14.36690 9.22563 0.80585 3.55122 100.66300 4.91634 81.66510 27.89490 35.58130 89.45590 15.10810 12.01680 11.08070 17.58990 -8.04124 -10.57870 -19.74850 9.33971 57.01790 0.03326 17.19000 -0.12600 3.22131 -26.73820 -62.61810 -24.75990 9.37633 8.01659 43.93650 8.34490 -44.73580 -34.21190 -5.06251 0.65115 6.90927 -41.44590 13.21600 
16.49000 93.66200 -29.57190 -4.16741 -12.03400 -23.05120 -3.94439 11.77610 1.62616 -4.61877 22.99990 3.78398 -6.89831 0.21066 0.58169 -0.00000 0.00000 -0.00000 -142.13499 -55.54780 -115.50700 -62.08810 62.85060 -55.61420 16.96250 7.19186 -14.68170 9.41611 0.90346 4.25081 100.55500 4.47677 81.69270 28.24610 35.73060 89.33250 14.89290 12.00610 11.21470 17.70220 -8.38644 -11.49350 -20.29630 9.70485 58.28700 0.21099 16.79310 -0.16125 2.95654 -27.36750 -63.05560 -24.70360 8.93225 7.59654 44.00220 9.61063 -45.41570 -34.47080 -5.30292 0.58106 7.34878 -42.80410 13.61470 
16.30150 93.48220 -29.38450 -4.14123 -12.00470 -23.09440 -4.28841 11.82410 1.76870 -5.24202 23.04970 4.16225 -6.15457 0.17378 0.18298 -0.00000 0.00000 -0.00000 -137.57899 -56.64980 -111.43700 -58.49600 60.75610 -58.97970 16.77310 7.17745 -15.00470 9.58352 1.00304 4.95765 100.22400 3.91902 81.88030 28.70950 35.82740 89.08670 14.64480 11.99200 11.36100 17.95690 -8.79013 -12.59360 -21.10800 10.21140 59.97010 0.34792 16.13920 -0.18442 2.76629 -27.84580 -63.13200 -24.60980 8.49327 7.22560 44.01410 10.84220 -46.02190 -34.95030 -5.36210 0.57286 7.88245 -44.43700 14.03510 
16.16060 93.27050 -29.06940 -4.20115 -11.91350 -23.37400 -4.70211 11.85000 1.88731 -5.86390 23.04110 4.48804 -5.35011 -0.03913 -0.06095 -0.00000 0.00000 -0.00000 -132.11200 -57.87140 -106.35800 -55.09660 58.01400 -62.21160 16.35720 7.20338 -15.33040 9.63555 1.08152 5.54307 99.67100 3.37415 82.23860 29.25520 35.85900 88.74240 14.35180 11.96480 11.45910 18.31500 -9.55374 -13.87190 -22.33950 11.40780 62.22460 0.22602 15.25190 -0.15213 2.57701 -28.38780 -62.80410 -24.53430 8.00700 6.99750 44.02760 12.06790 -46.52540 -35.59820 -5.23415 0.62948 8.49108 -46.35190 14.38090 
16.07800 93.03780 -28.61020 -4.33371 -11.78640 -23.93520 -5.19458 11.85610 1.97478 -6.48530 22.98070 4.74743 -4.53064 -0.59842 -0.09986 -0.00000 0.00000 -0.00000 -126.34400 -59.18380 -100.62000 -52.39240 54.88780 -64.87140 15.76330 7.26772 -15.62350 9.48621 1.11400 5.87422 98.92830 3.00365 82.76290 29.80990 35.79930 88.34590 14.00120 11.91990 11.48600 18.79570 -10.49800 -15.35700 -24.06330 12.89210 65.17020 0.09001 14.50410 -0.11998 2.30167 -29.21620 -62.19510 -24.52370 7.47947 6.97241 44.03340 13.29280 -46.82800 -36.29030 -4.87989 0.76491 9.16421 -48.50480 14.64620 
16.05680 92.82250 -28.02380 -4.53264 -11.68680 -24.81310 -5.77652 11.85140 2.03281 -7.10736 22.89880 4.92477 -3.77660 -1.56140 0.04204 -0.00000 0.00000 -0.00000 -120.38200 -60.59800 -94.21180 -50.34660 51.47740 -67.00940 15.02150 7.36433 -15.89550 9.11193 1.08766 5.86725 98.04610 2.91151 83.44880 30.38530 35.63370 87.89450 13.59190 11.86310 11.48410 19.38170 -11.54220 -16.94180 -26.29630 14.55840 68.74270 0.05647 14.17840 -0.11140 1.89648 -30.41550 -61.56140 -24.60620 6.98632 7.18879 43.97710 14.45300 -46.81580 -36.90620 -4.26420 0.99209 9.90854 -50.77840 14.93560 
16.09900 92.63930 -27.32540 -4.78788 -11.68130 -26.00720 -6.49133 11.84620 2.06352 -7.73472 22.82040 5.00944 -3.19476 -2.77517 0.28003 -0.00000 0.00000 -0.00000 -113.95700 -62.10040 -86.81160 -48.94610 47.70040 -68.65180 14.07660 7.49290 -16.23680 8.57325 1.00770 5.50388 97.06640 3.09292 84.28390 31.08420 35.37070 87.34970 13.14500 11.80500 11.51310 20.01720 -12.71160 -18.35030 -29.00860 16.59960 72.62290 0.10422 14.40190 -0.12200 1.38987 -31.85520 -61.14360 -24.81910 6.58786 7.64084 43.83950 15.53570 -46.47600 -37.38860 -3.43794 1.29408 10.74340 -53.04950 15.37140 
16.20260 92.50420 -26.53060 -5.07446 -11.80470 -27.50820 -7.40112 11.82650 2.08242 -8.37150 22.72380 5.00444 -2.84998 -3.92721 0.52042 -0.00000 0.00000 -0.00000 -106.42900 -63.53500 -77.73860 -48.26590 43.32930 -69.78510 12.80940 7.66763 -16.75180 8.00873 0.89321 4.82121 96.01130 3.43709 85.22430 31.94400 35.04970 86.72770 12.70380 11.75180 11.57950 20.64600 -14.00610 -19.10180 -32.05640 19.25830 76.24800 0.21484 15.19370 -0.14944 0.89011 -33.18920 -61.05740 -25.20480 6.34030 8.28141 43.61320 16.45620 -45.82370 -37.82980 -2.48003 1.64746 11.64170 -55.19650 15.94540 
16.35950 92.43670 -25.64360 -5.36360 -12.04180 -29.32360 -8.55932 11.75420 2.11477 -9.02199 22.54190 4.93210 -2.72219 -4.72366 0.70732 -0.00000 0.00000 -0.00000 -96.91790 -64.34780 -66.08890 -48.24100 37.94090 -70.60440 11.09130 7.92188 -17.45410 7.59667 0.76771 3.90376 94.87810 3.77241 86.19760 32.84910 34.73100 86.12720 12.31350 11.70520 11.64490 21.25200 -15.34110 -18.59240 -35.10880 22.73010 79.02220 0.42915 16.45500 -0.20429 0.56569 -33.92530 -61.37530 -25.77910 6.24740 9.02680 43.28260 17.13540 -44.86420 -38.32060 -1.50195 2.01878 12.47880 -57.04040 16.49540 
16.55500 92.44810 -24.65250 -5.65461 -12.32770 -31.47010 -9.94550 11.58590 2.17351 -9.66828 22.20550 4.80915 -2.74472 -5.05753 0.83334 -0.00000 0.00000 -0.00000 -85.45880 -63.33520 -51.92450 -48.53630 30.79970 -71.69970 8.79208 8.31104 -18.16350 7.43688 0.64593 2.86053 93.66330 3.95824 87.14480 33.60240 34.45480 85.66260 11.98020 11.66710 11.71900 21.89790 -16.54250 -16.46970 -37.69210 26.98370 80.65510 0.81125 17.94230 -0.30383 0.61382 -33.55230 -62.15080 -26.49710 6.24797 9.80082 42.83290 17.56000 -43.61550 -38.83440 -0.60534 2.37149 13.09450 -58.39750 16.84330 
16.77070 92.52500 -23.53690 -5.98536 -12.55730 -33.93370 -11.42450 11.29470 2.23641 -10.24590 21.68400 4.60981 -2.84814 -5.02580 0.92342 -0.00000 0.00000 -0.00000 -74.75410 -59.01420 -37.99380 -48.93530 20.86140 -73.91400 5.72450 8.90092 -18.49300 7.46572 0.52918 1.78038 92.40860 3.96570 88.05090 34.10010 34.21970 85.36520 11.67620 11.64060 11.86630 22.69820 -17.45490 -12.95340 -39.38530 31.69210 81.28710 1.30744 19.29810 -0.43790 1.14836 -31.89760 -63.25690 -27.26260 6.26287 10.59810 42.28770 17.72380 -42.15990 -39.30870 0.18074 2.68977 13.42070 -59.23270 16.92660 
